<?xml version="1.0" encoding="UTF-8"?>
<svg width="367px" height="112px" viewBox="0 0 367 112" version="1.1" xmlns="http://www.w3.org/2000/svg" xmlns:xlink="http://www.w3.org/1999/xlink">
    <!-- Generator: Sketch 51.2 (57519) - http://www.bohemiancoding.com/sketch -->
    <title>Horizontal Logo</title>
    <desc>Created with Sketch.</desc>
    <defs></defs>
    <g id="Horizontal-Logo" stroke="none" stroke-width="1" fill="none" fill-rule="evenodd">
        <circle id="Oval" stroke="#193163" stroke-width="7" fill="#F7F6F4" cx="59" cy="56" r="52.5"></circle>
        <text id="ShowFace" font-family="JosefinSans-Bold, Josefin Sans" font-size="50" font-weight="bold" fill="#193163">
            <tspan x="138.1" y="75">ShowFace</tspan>
        </text>
        <g id="Group-Copy" transform="translate(36.000000, 21.000000)" fill="#193163" fill-rule="nonzero">
            <path d="M23.8623714,0.0093794049 C23.7240839,0.0426562583 23.5895336,0.114756178 23.4736707,0.231225094 L17.4039591,5.91047474 C17.3927464,5.92711352 17.3852718,5.9382051 17.3740591,5.95484388 C17.0189957,6.32643576 16.5891831,6.70911922 16.1780568,7.28591802 C15.7669315,7.86271681 15.3707553,8.76673835 15.3707553,9.85932801 L15.3707553,10.835449 L1.31772849,4.35755492 C1.194391,4.29100121 1.05984074,4.25772507 0.929027753,4.26881664 C0.450626842,4.29100121 0.0581885948,4.82897665 0.00586344729,5.53333707 C-0.0464613653,6.23769749 0.256276472,6.88659578 0.719727354,7.06407233 L15.8790562,14.0743961 C15.9089563,14.0910349 15.9388563,14.1076737 15.9687564,14.1187652 L16.0285565,14.1631344 C16.0397693,14.1631344 16.0472438,14.1631344 16.0584566,14.1631344 C16.0771439,14.1797732 16.0995694,14.1964119 16.1182567,14.2075035 C16.136944,14.2075035 16.1593695,14.2075035 16.1780568,14.2075035 C16.1892696,14.2075035 16.1967441,14.2075035 16.2079568,14.2075035 C16.2266441,14.2075035 16.2490697,14.2075035 16.267757,14.2075035 C16.3163443,14.2130493 16.3686699,14.2130493 16.4172572,14.2075035 L17.2843589,14.2075035 L17.2843589,17.0471283 L16.6265576,17.0471283 C16.4994829,17.008305 16.3649326,17.008305 16.2378569,17.0471283 C16.2266441,17.0471283 16.2191696,17.0471283 16.2079568,17.0471283 C16.1481567,17.0526741 16.0883566,17.0693129 16.0285565,17.0914975 C16.0098692,17.1025905 15.9874437,17.1192278 15.9687564,17.1358666 L0.719727354,24.1905595 C0.215163654,24.4345898 -0.0576741259,25.2387801 0.106776187,25.9875096 C0.2712265,26.7362392 0.813164793,27.1411072 1.31772849,26.897077 L15.3707553,20.4191828 L15.3707553,21.7946261 C15.3707553,23.6414911 16.2789697,25.155589 17.4637592,25.4772645 L16.2378569,33.3749711 C16.0285565,33.7243784 15.9500691,34.2068931 16.0285565,34.6616761 C16.0285565,34.6783149 16.0285565,34.6894064 16.0285565,34.7060452 L14.4438535,44.7778395 C14.350416,45.0218698 14.3093032,45.2991776 14.3242533,45.576484 L12.7096502,55.9588623 C12.6012627,56.2084383 12.5489371,56.5023849 12.5601499,56.8018759 L10.9156468,67.4060998 C10.904434,67.461562 10.8932222,67.5225685 10.8857467,67.5835764 L10.8558467,67.6723147 C10.8521094,67.7333226 10.8521094,67.7887833 10.8558467,67.8497912 L10.6166462,69.2696036 C10.5531088,69.6911104 10.6203835,70.129256 10.7997838,70.4620246 C10.9829224,70.8003389 11.2557602,70.9944542 11.543548,71 L36.4203953,71 C36.7081831,70.9944542 36.9810219,70.8003389 37.1641595,70.4620246 C37.3435598,70.129256 37.4108345,69.6911104 37.3472971,69.2696036 L36.0914947,61.1056823 C36.1924076,60.600983 36.1027075,60.0574617 35.8522943,59.6858698 L34.686192,52.1431164 C34.7758922,51.6550559 34.686192,51.128172 34.4469916,50.7676731 L33.2509893,43.1361814 C33.2995767,42.7479522 33.232302,42.3430827 33.071589,42.026953 L31.8456866,34.2179847 C31.8456866,34.1902543 31.8456866,34.1569768 31.8456866,34.1292464 L31.8456866,34.0405082 C31.8494239,33.7576545 31.7970993,33.4803481 31.6961863,33.2418637 L30.5001841,25.4772645 C31.6849736,25.155589 32.593188,23.6414911 32.593188,21.7946261 L32.593188,20.4191828 L46.6462148,26.897077 C47.1507785,27.1411072 47.6927168,26.7362392 47.8571671,25.9875096 C48.0216174,25.2387801 47.7487796,24.4345898 47.2442159,24.1905595 L32.0848871,17.1802358 C32.0362997,17.1469596 31.9877124,17.1136821 31.9353868,17.0914975 C31.924174,17.0914975 31.9166995,17.0914975 31.9054867,17.0914975 C31.8867994,17.0748587 31.8643739,17.0582213 31.8456866,17.0471283 C31.8269993,17.0471283 31.8045738,17.0471283 31.7858865,17.0471283 C31.7746737,17.0471283 31.7671992,17.0471283 31.7559865,17.0471283 C31.6849736,17.0360368 31.6176989,17.0360368 31.5466861,17.0471283 L30.6795844,17.0471283 L30.6795844,14.2075035 L31.516786,14.2075035 C31.5578988,14.2130493 31.5952734,14.2130493 31.6363862,14.2075035 C31.6662863,14.2075035 31.6961863,14.2075035 31.7260864,14.2075035 C31.7858865,14.2019577 31.8456866,14.185319 31.9054867,14.1631344 C31.9166995,14.1631344 31.924174,14.1631344 31.9353868,14.1631344 L47.2442159,7.06407233 C47.7637297,6.89214156 48.0926303,6.12677464 47.9767673,5.35586052 C47.8609044,4.58494639 47.3451289,4.09688588 46.8256151,4.26881664 C46.765815,4.29100121 46.7022777,4.31873157 46.6462148,4.35755492 L32.593188,10.835449 L32.593188,9.85932801 C32.593188,8.82219906 32.2493374,7.8682626 31.8456866,7.28591802 C31.4420359,6.70357344 31.008485,6.37635069 30.5898842,5.95484388 C30.5786715,5.9382051 30.5711969,5.92711352 30.5599842,5.91047474 L24.4902726,0.231225094 C24.3033977,0.0537485428 24.0828846,-0.0294436617 23.8623714,0.0093794049 Z M23.9819716,3.11521906 L29.5134822,8.26203905 C29.5284322,8.27867783 29.5284322,8.28976941 29.5433822,8.30640819 C29.9844086,8.75009957 30.3357337,9.13278302 30.5001841,9.3712675 C30.6721099,9.61529775 30.6795844,9.5875674 30.6795844,9.85932801 L30.6795844,11.3678787 L17.2843589,11.3678787 L17.2843589,9.85932801 C17.2843589,9.64857532 17.2993089,9.59865897 17.4936593,9.32689836 C17.6767969,9.07177653 18.0281231,8.71682342 18.4205611,8.30640819 L18.4803612,8.26203905 L23.9819716,3.11521906 Z M19.1979625,14.2075035 L28.7659808,14.2075035 L28.7659808,17.0471283 L19.1979625,17.0471283 L19.1979625,14.2075035 Z M17.2843589,19.8867532 L30.6795844,19.8867532 L30.6795844,21.7946261 C30.6795844,22.3381487 30.4142212,22.726378 30.0516832,22.726378 L29.7227826,22.726378 C29.4424693,22.5045323 29.1060941,22.5045323 28.8257809,22.726378 L18.7494617,22.726378 C18.6896616,22.7152864 18.6298615,22.7152864 18.5700613,22.726378 L17.9122601,22.726378 C17.5459849,22.726378 17.2843589,22.3381487 17.2843589,21.7946261 L17.2843589,19.8867532 Z M19.4072629,25.5660028 L26.6729768,25.5660028 L18.4803612,31.6002056 L19.4072629,25.5660028 Z M28.7958808,27.1632918 L29.7526826,33.2418637 L16.7162578,42.8255975 L17.9122601,35.1497366 L28.7958808,27.1632918 Z M30.2011835,36.0814885 L31.1280853,42.1156912 L14.9521545,54.0509893 L16.1481567,46.4194976 L30.2011835,36.0814885 Z M31.5765861,44.9996852 L32.5333879,51.033888 L13.1880511,65.2763812 L14.3840534,57.6448895 L31.5765861,44.9996852 Z M32.9818888,53.9178819 L33.9386906,59.9520847 L22.7859694,68.1603752 L13.6066519,68.1603752 L32.9818888,53.9178819 Z M34.3871915,62.8360786 L35.2243931,68.1603752 L27.1214776,68.1603752 L34.3871915,62.8360786 Z" id="Shape"></path>
        </g>
    </g>
</svg>