<?xml version="1.0" encoding="UTF-8"?>
<svg width="99px" height="124px" viewBox="0 0 99 124" version="1.1" xmlns="http://www.w3.org/2000/svg" xmlns:xlink="http://www.w3.org/1999/xlink">
    <!-- Generator: Sketch 51.2 (57519) - http://www.bohemiancoding.com/sketch -->
    <title>ShowFace logo</title>
    <desc>Created with Sketch.</desc>
    <defs></defs>
    <g id="Page-1" stroke="none" stroke-width="1" fill="none" fill-rule="evenodd">
        <path d="M49.3423006,10.0105683 C49.1838461,10.0480634 49.029674,10.1293027 48.8969143,10.2605353 L41.9420365,16.6596898 C41.9291885,16.6784378 41.920624,16.6909353 41.907776,16.7096832 C41.5009325,17.1283783 41.0084389,17.559571 40.5373567,18.2094851 C40.0662757,18.8593992 39.6123237,19.878015 39.6123237,21.109102 L39.6123237,22.2089567 L23.5098972,14.909921 C23.368573,14.8349309 23.2144008,14.7974367 23.064511,14.8099342 C22.5163433,14.8349309 22.0666744,15.4411005 22.0067185,16.234746 C21.946763,17.0283915 22.2936501,17.7595445 22.8246876,17.9595181 L40.1947519,25.8584745 C40.2290124,25.8772224 40.2632729,25.8959703 40.2975334,25.9084679 L40.3660543,25.9584613 C40.3789023,25.9584613 40.3874669,25.9584613 40.4003148,25.9584613 C40.4217273,25.9772092 40.4474232,25.9959571 40.4688358,26.0084547 C40.4902483,26.0084547 40.5159442,26.0084547 40.5373567,26.0084547 C40.5502047,26.0084547 40.5587693,26.0084547 40.5716172,26.0084547 C40.5930297,26.0084547 40.6187257,26.0084547 40.6401382,26.0084547 C40.6958112,26.0147034 40.7557676,26.0147034 40.8114406,26.0084547 L41.8049946,26.0084547 L41.8049946,29.2080319 L41.051264,29.2080319 C40.9056575,29.1642873 40.7514853,29.1642873 40.6058777,29.2080319 C40.5930297,29.2080319 40.5844652,29.2080319 40.5716172,29.2080319 C40.5030963,29.2142807 40.4345753,29.2330286 40.3660543,29.2580253 C40.3446418,29.2705245 40.3189459,29.2892708 40.2975334,29.3080187 L22.8246876,37.2569685 C22.2465417,37.5319322 21.9339151,38.4380621 22.1223477,39.281701 C22.3107804,40.1253399 22.9317513,40.5815293 23.5098972,40.3065656 L39.6123237,33.0075299 L39.6123237,34.5573252 C39.6123237,36.6382998 40.6529861,38.3443256 42.0105575,38.706777 L40.6058777,47.6056012 C40.3660543,47.9992996 40.2761208,48.5429782 40.3660543,49.0554097 C40.3660543,49.0741576 40.3660543,49.0866551 40.3660543,49.1054031 L38.5502488,60.4539037 C38.4431851,60.7288674 38.3960766,61.0413269 38.4132069,61.3537848 L36.5631408,73.0522392 C36.4389469,73.3334516 36.3789905,73.6646591 36.3918384,74.0021137 L34.5075119,85.950535 C34.494664,86.0130276 34.4818171,86.0817673 34.4732514,86.1505086 L34.438991,86.2504954 C34.4347087,86.3192367 34.4347087,86.3817277 34.438991,86.450469 L34.1649071,88.0502576 C34.0921039,88.5251949 34.1691894,89.01888 34.3747523,89.3938305 C34.5845986,89.7750297 34.8972252,89.9937512 35.226982,90 L63.731703,90 C64.0614599,89.9937512 64.3740876,89.7750297 64.5839327,89.3938305 C64.7894956,89.01888 64.8665812,88.5251949 64.7937779,88.0502576 L63.3548377,78.851473 C63.4704671,78.2827977 63.3676856,77.6703794 63.0807538,77.2516843 L61.744595,68.7528072 C61.8473765,68.2028799 61.744595,67.6092079 61.4705112,67.203012 L60.1000919,58.6041481 C60.1557649,58.1667067 60.0786794,57.7105157 59.894529,57.3543132 L58.4898493,48.5554757 C58.4898493,48.5242303 58.4898493,48.4867344 58.4898493,48.4554889 L58.4898493,48.3555021 C58.4941315,48.0367939 58.4341762,47.7243359 58.3185468,47.455621 L56.9481276,38.706777 C58.3056989,38.3443256 59.3463613,36.6382998 59.3463613,34.5573252 L59.3463613,33.0075299 L75.4487878,40.3065656 C76.0269337,40.5815293 76.6479047,40.1253399 76.8363373,39.281701 C77.02477,38.4380621 76.7121433,37.5319322 76.1339974,37.2569685 L58.7639331,29.3580121 C58.7082601,29.3205179 58.6525871,29.283022 58.5926307,29.2580253 C58.5797827,29.2580253 58.5712182,29.2580253 58.5583702,29.2580253 C58.5369577,29.2392774 58.5112618,29.2205311 58.4898493,29.2080319 C58.4684367,29.2080319 58.4427408,29.2080319 58.4213283,29.2080319 C58.4084803,29.2080319 58.3999158,29.2080319 58.3870678,29.2080319 C58.3056989,29.1955344 58.2286134,29.1955344 58.1472444,29.2080319 L57.1536905,29.2080319 L57.1536905,26.0084547 L58.112984,26.0084547 C58.1600924,26.0147034 58.2029174,26.0147034 58.2500259,26.0084547 C58.2842864,26.0084547 58.3185468,26.0084547 58.3528073,26.0084547 C58.4213283,26.0022059 58.4898493,25.983458 58.5583702,25.9584613 C58.5712182,25.9584613 58.5797827,25.9584613 58.5926307,25.9584613 L76.1339974,17.9595181 C76.7292736,17.7657933 77.1061389,16.903408 76.9733792,16.0347724 C76.8406196,15.1661368 76.2496268,14.6162094 75.6543507,14.8099342 C75.5858297,14.8349309 75.5130265,14.8661764 75.4487878,14.909921 L59.3463613,22.2089567 L59.3463613,21.109102 C59.3463613,19.940506 58.9523658,18.865648 58.4898493,18.2094851 C58.0273328,17.5533222 57.5305558,17.1846205 57.050909,16.7096832 C57.0380611,16.6909353 57.0294965,16.6784378 57.0166485,16.6596898 L50.0617707,10.2605353 C49.8476432,10.0605617 49.5949719,9.96682404 49.3423006,10.0105683 Z M49.4793425,13.510106 L55.8175317,19.3093398 C55.8346619,19.3280877 55.8346619,19.3405852 55.8517921,19.3593332 C56.3571348,19.8592671 56.7596949,20.2904597 56.9481276,20.5591746 C57.1451259,20.8341383 57.1536905,20.8028928 57.1536905,21.109102 L57.1536905,22.8088774 L41.8049946,22.8088774 L41.8049946,21.109102 C41.8049946,20.8716342 41.8221248,20.8153904 42.0448179,20.5091812 C42.2546631,20.22172 42.6572243,19.8217729 43.1068929,19.3593332 L43.1754138,19.3093398 L49.4793425,13.510106 Z M43.9976654,26.0084547 L54.9610196,26.0084547 L54.9610196,29.2080319 L43.9976654,29.2080319 L43.9976654,26.0084547 Z M41.8049946,32.4076092 L57.1536905,32.4076092 L57.1536905,34.5573252 C57.1536905,35.1697451 56.8496284,35.6071865 56.4342203,35.6071865 L56.057355,35.6071865 C55.7361627,35.3572195 55.3507329,35.3572195 55.0295406,35.6071865 L43.4837582,35.6071865 C43.4152372,35.5946889 43.3467163,35.5946889 43.2781953,35.6071865 L42.5244647,35.6071865 C42.1047743,35.6071865 41.8049946,35.1697451 41.8049946,34.5573252 L41.8049946,32.4076092 Z M44.2374888,38.8067637 L52.5627859,38.8067637 L43.1754138,45.6058654 L44.2374888,38.8067637 Z M54.9952801,40.606526 L56.0916155,47.455621 L41.1540454,58.2541943 L42.5244647,49.605337 L54.9952801,40.606526 Z M56.6055228,50.6551983 L57.6675977,57.4543 L39.132677,70.9025232 L40.5030963,62.3036593 L56.6055228,50.6551983 Z M58.1815049,60.7038707 L59.2778403,67.5029723 L37.1113085,83.5508521 L38.4817278,74.9519882 L58.1815049,60.7038707 Z M59.7917476,70.752543 L60.888083,77.5516447 L48.1089232,86.8004227 L37.5909553,86.8004227 L59.7917476,70.752543 Z M61.4019902,80.8012154 L62.3612837,86.8004227 L53.0766931,86.8004227 L61.4019902,80.8012154 Z" id="Shape" fill="#F9BA5C" fill-rule="nonzero"></path>
        <text id="ShowFace" font-family="JosefinSans-Bold, Josefin Sans" font-size="18" font-weight="bold" fill="#193163">
            <tspan x="11.916" y="116">ShowFace</tspan>
        </text>
    </g>
</svg>